#!OML:ASF H:\GeneralSubjects\Female5\Project 1\Capture day 1\Session 1\Female5.ASF
:FULLY-SPECIFIED
:DEGREES
563
root 35.1458 15.8177 4.39401 -170.819 2.96749 -179.467
lowerback 9.14596 1.78238 3.21879
upperback -9.2461 3.56811 -0.0142891
thorax -15.2725 1.54849 -2.66965
lowerneck -15.2523 7.06907 5.71531
upperneck 31.7774 8.58685 -5.73408
head 13.8767 2.8561 -2.04831
rclavicle -3.72224e-014 -2.44505e-014
rhumerus -53.2428 18.909 -84.2775
rradius 32.5607
rwrist -9.33544
rhand -27.76 -16.921
rfingers 7.12502
rthumb -1.15412 -46.8976
lclavicle -3.72224e-014 -2.44505e-014
lhumerus -52.1106 4.09947 68.1458
lradius 25.8916
lwrist -9.12367
lhand -32.9998 28.7763
lfingers 7.12502
lthumb -6.21401 58.6652
rfemur -9.18264 7.27746 17.9392
rtibia 10.0375
rfoot -18.7602 -2.80038
rtoes 7.72938
lfemur -10.9928 -26.0197 5.0645
ltibia 10.7076
lfoot -36.0181 15.4617
ltoes -26.3268
564
root 34.9583 15.7445 4.35776 -171.138 2.85555 -179.596
lowerback 9.16575 1.81318 2.80454
upperback -9.18949 3.54221 0.0576659
thorax -15.2429 1.58511 -2.35066
lowerneck -15.2057 7.08432 5.66973
upperneck 31.7038 8.62924 -5.71847
head 13.8334 2.87753 -2.02572
rclavicle -2.07481e-014 -3.97569e-015
rhumerus -53.156 19.2207 -84.216
rradius 32.5154
rwrist -9.57551
rhand -27.9676 -16.9212
rfingers 7.12502
rthumb -1.35467 -46.8967
lclavicle -2.07481e-014 -3.97569e-015
lhumerus -52.1703 4.55913 67.949
lradius 25.9026
lwrist -9.55809
lhand -32.9747 29.2096
lfingers 7.12502
lthumb -6.18977 59.0992
rfemur -9.2376 6.35554 16.88
rtibia 11.0172
rfoot -18.4691 -1.68411
rtoes 10.7881
lfemur -10.6664 -26.5921 4.73178
ltibia 11.3794
lfoot -33.3715 16.7804
ltoes -26.9606
565
root 34.7549 15.6676 4.31717 -171.4 2.74185 -179.658
lowerback 9.12272 1.83695 2.49987
upperback -9.17268 3.53529 0.14711
thorax -15.2169 1.62313 -2.07644
lowerneck -15.1325 7.08512 5.74409
upperneck 31.6938 8.64116 -5.81691
head 13.8244 2.87791 -2.07787
rclavicle -3.50358e-015 7.7526e-015
rhumerus -53.1522 19.5596 -84.1226
rradius 32.5049
rwrist -9.7617
rhand -27.9457 -16.8814
rfingers 7.12502
rthumb -1.33352 -46.857
lclavicle -3.50358e-015 7.7526e-015
lhumerus -52.2342 5.02004 67.7001
lradius 25.8777
lwrist -10.0246
lhand -32.8327 29.2165
lfingers 7.12502
lthumb -6.05269 59.11
rfemur -9.14362 5.69739 15.8344
rtibia 11.6562
rfoot -18.4409 -0.787051
rtoes 13.1548
lfemur -10.3947 -27.0049 4.25003
ltibia 12.0526
lfoot -30.497 18.1657
ltoes -28.2232
566
root 34.5367 15.5896 4.27501 -171.618 2.61853 -179.623
lowerback 9.10403 1.8534 2.35055
upperback -9.21314 3.55797 0.246989
thorax -15.2687 1.66014 -1.88826
lowerneck -15.04 7.05143 5.82283
upperneck 31.7583 8.57731 -5.87102
head 13.8354 2.84599 -2.12916
rclavicle 2.42517e-014 1.55052e-014
rhumerus -53.1033 19.7118 -83.8368
rradius 32.3852
rwrist -9.7384
rhand -27.5777 -16.7722
rfingers 7.12502
rthumb -0.978022 -46.7497
lclavicle 2.42517e-014 1.55052e-014
lhumerus -52.4958 5.27265 67.5628
lradius 26.0411
lwrist -10.363
lhand -32.8317 29.0933
lfingers 7.12502
lthumb -6.05173 58.9869
rfemur -8.90821 5.38521 14.8858
rtibia 11.9893
rfoot -18.591 -0.262377
rtoes 14.6021
lfemur -10.2265 -27.0312 3.64301
ltibia 12.9137
lfoot -29.4605 15.7685
ltoes -28.6939
567
root 34.3034 15.5143 4.23397 -171.822 2.47165 -179.537
lowerback 9.10194 1.86766 2.29148
upperback -9.25853 3.59767 0.367065
thorax -15.3337 1.69714 -1.73278
lowerneck -14.9598 6.99277 5.89119
upperneck 31.8225 8.471 -5.89318
head 13.8431 2.79983 -2.17261
rclavicle -2.01766e-014 -1.43125e-014
rhumerus -53.0383 19.805 -83.4725
rradius 32.2628
rwrist -9.84808
rhand -27.6222 -16.821
rfingers 7.12502
rthumb -1.02099 -46.7983
lclavicle -2.01766e-014 -1.43125e-014
lhumerus -52.8318 4.75914 68.1886
lradius 26.3579
lwrist -10.1331
lhand -32.9648 29.4338
lfingers 7.12502
lthumb -6.18021 59.3237
rfemur -8.48897 5.58472 13.9808
rtibia 11.989
rfoot -18.8861 -0.2639
rtoes 15.8068
lfemur -10.1889 -26.7349 2.91152
ltibia 14.1242
lfoot -30.3922 8.11043
ltoes -28.3295
